<?xml version="1.0" encoding="UTF-8" standalone="no"?>
<!-- Created with Inkscape (http://www.inkscape.org/) -->
<!--   onclick="document.defaultView.parent.$(document.defaultView.frameElement).trigger('click')"-->

<svg
   onclick="clickIt()"
   xmlns:dc="http://purl.org/dc/elements/1.1/"
   xmlns:cc="http://creativecommons.org/ns#"
   xmlns:rdf="http://www.w3.org/1999/02/22-rdf-syntax-ns#"
   xmlns:svg="http://www.w3.org/2000/svg"
   xmlns="http://www.w3.org/2000/svg"
   xmlns:sodipodi="http://sodipodi.sourceforge.net/DTD/sodipodi-0.dtd"
   xmlns:inkscape="http://www.inkscape.org/namespaces/inkscape"
   width="43.57753"
   height="125.94588"
   id="svg2"
   version="1.1"
   inkscape:version="0.48.3.1 r9886"
   sodipodi:docname="lightbulb_hack.svg">
  <defs
     id="defs4" />
  <sodipodi:namedview
     id="base"
     pagecolor="#ffffff"
     bordercolor="#666666"
     borderopacity="1.0"
     inkscape:pageopacity="0.0"
     inkscape:pageshadow="2"
     inkscape:zoom="3.959798"
     inkscape:cx="-9.1722101"
     inkscape:cy="67.614157"
     inkscape:document-units="px"
     inkscape:current-layer="layer1"
     showgrid="false"
     inkscape:window-width="1561"
     inkscape:window-height="835"
     inkscape:window-x="203"
     inkscape:window-y="117"
     inkscape:window-maximized="0"
     fit-margin-bottom="-0.2"
     fit-margin-top="0"
     fit-margin-left="0"
     fit-margin-right="0" />
  <metadata
     id="metadata7">
    <rdf:RDF>
      <cc:Work
         rdf:about="">
        <dc:format>image/svg+xml</dc:format>
        <dc:type
           rdf:resource="http://purl.org/dc/dcmitype/StillImage" />
        <dc:title />
      </cc:Work>
    </rdf:RDF>
  </metadata>
  <g
     inkscape:label="Layer 1"
     inkscape:groupmode="layer"
     id="layer1"
     transform="translate(-116.03935,-306.60412)">
    <path
       class="glass"
       style="fill:#cccccc"
       d="m 123.79764,363.75523 7.62626,-1.99855 0,10.61832 -7.62626,0 z m 31.16522,-7.91148 c -0.30364,0.0239 -0.62735,0.0797 -0.9375,0.15625 l -6.75,1.65625 c -2.03507,0.50222 -3.45174,2.0856 -3.625,3.78125 l -0.0313,0 0,0.34375 0,1.34375 0,1.125 0,8.125 7.6875,0 0,-7.3125 4.65625,-1.125 c 2.48122,-0.61232 4.05994,-2.80733 3.5625,-4.875 l -0.125,-0.5 c -0.43525,-1.8092 -2.312,-2.88636 -4.4375,-2.71875 z m -35.26439,-46.74176 9.5992,-2.33404 c 2.48331,-0.6038 4.86609,0.50747 5.36352,2.57514 l 0.11632,0.4835 c 0.49744,2.06766 -1.08442,4.28553 -3.56773,4.88935 l -9.5992,2.33404 c -2.48331,0.6038 -4.86609,-0.50748 -5.36352,-2.57513 l -0.11632,-0.48351 c -0.49744,-2.06766 1.08442,-4.28553 3.56773,-4.88935 z m -3.7e-4,44.63909 34.34793,-8.90004 c 2.47396,-0.64103 4.86609,0.50747 5.36353,2.57514 l 0.11632,0.4835 c 0.49743,2.06766 -1.09378,4.24832 -3.56773,4.88935 l -34.34794,8.90004 c -2.47396,0.64103 -4.86609,-0.50748 -5.36352,-2.57514 l -0.11633,-0.4835 c -0.49743,-2.06767 1.09378,-4.24831 3.56774,-4.88935 z m -1e-5,-11.16322 34.34793,-8.90003 c 2.47396,-0.64104 4.86609,0.50747 5.36353,2.57514 l 0.11632,0.48349 c 0.49743,2.06767 -1.09377,4.24833 -3.56773,4.88936 l -34.34794,8.90004 c -2.47395,0.64104 -4.86609,-0.50748 -5.36352,-2.57515 l -0.11632,-0.48349 c -0.49744,-2.06767 1.09377,-4.24832 3.56773,-4.88936 z m 0,-11.16321 34.34793,-8.90004 c 2.47396,-0.64103 4.86609,0.50748 5.36353,2.57514 l 0.11632,0.4835 c 0.49743,2.06767 -1.09377,4.24831 -3.56773,4.88935 l -34.34794,8.90004 c -2.47396,0.64103 -4.86609,-0.50747 -5.36352,-2.57514 l -0.11632,-0.4835 c -0.49744,-2.06766 1.09377,-4.24831 3.56773,-4.88935 z m 0,-11.16321 34.34793,-8.90004 c 2.47396,-0.64104 4.86609,0.50747 5.36353,2.57514 l 0.11632,0.4835 c 0.49743,2.06766 -1.09378,4.24831 -3.56774,4.88935 l -34.34793,8.90003 c -2.47396,0.64104 -4.86609,-0.50747 -5.36353,-2.57513 l -0.11632,-0.4835 c -0.49743,-2.06767 1.09378,-4.24832 3.56774,-4.88935 z"
       inkscape:label="glass"
       inkscape:connector-curvature="0" />
    <path
       style="fill:#b3b3b3"
       d="m 116.74999,376.81256 0,15.28125 0,1.65625 0.0625,0 c 0.82165,7.67852 7.315,13.625 15.21875,13.625 l 11.59375,0 c 7.90375,0 14.3971,-5.94648 15.21875,-13.625 l 0.0625,0 0,-1.65625 0,-15.28125 -15.28125,0 -11.59375,0 -15.28125,0 z"
       id="rect3821"
       inkscape:connector-curvature="0" />
    <rect
       style="fill:#4d4d4d"
       id="rect3826"
       width="27.463522"
       height="5.8083768"
       x="124.09636"
       y="410.15903"
       ry="2.9357557"
       rx="2.9357557" />
    <rect
       rx="2.9357557"
       ry="2.9357557"
       y="418.75137"
       x="124.09636"
       height="5.8083768"
       width="27.463522"
       id="rect3828"
       style="fill:#4d4d4d" />
    <path
       style="fill:#4d4d4d"
       d="m 132.21875,427.34375 c -0.003,0.0632 0,0.12367 0,0.1875 l 0,0.625 c 0,2.55329 2.1368,4.59375 4.8125,4.59375 l 1.59375,0 c 2.6757,0 4.8125,-2.04046 4.8125,-4.59375 l 0,-0.625 c 0,-0.0636 0.003,-0.12459 0,-0.1875 l -11.21875,0 z"
       id="rect3830"
       inkscape:connector-curvature="0" />
  </g>
  <script>
  <![CDATA[
    var g=document.getElementsByClassName("glass")[0];
    var p=document.defaultView.frameElement;

    setOn = function() {
      g.style.fill="#ffd42a";
    }
    p.setOn = setOn;

    setOff = function() {
      g.style.fill="#cccccc";
    }
    p.setOff = setOff;

    isOn = function() {
      return g.style.fill=="#ffd42a";
    }
    p.isOn = isOn;

    toggle = function() {
      if (isOn()) setOff(); else setOn();
    }
    p.toggle=toggle

    params=document.defaultView.location.href.split("?")[1];
    if (params && params.length>0) {
      params=params.split("&");
      for (i=0; i < params.length; i++) {
        pp = params[i].split("=");
        if (pp[0]=="isOn") {
          g.isOn=pp[0]=="true";
	  setOn();
	}
      }
    }
function clickIt () {
  d = document.defaultView.parent;
  document.defaultView.parent.$(document.defaultView.frameElement).trigger("click")
}
  ]]>
  </script>
</svg>
